<svg width="25" height="25" viewBox="0 0 25 25" fill="none" xmlns="http://www.w3.org/2000/svg">
<g clip-path="url(#clip0_3403_448)">
<path d="M23.5 14.0002C24.3284 14.0002 25 13.3287 25 12.5002C25 11.6718 24.3284 11.0002 23.5 11.0002H18.5C17.6716 11.0002 17 11.6718 17 12.5002C17 13.3287 17.6716 14.0002 18.5 14.0002H23.5Z" fill="#FFC0AA"/>
<path d="M6.5 14.0002C7.32843 14.0002 8 13.3287 8 12.5002C8 11.6718 7.32843 11.0002 6.5 11.0002H1.5C0.671573 11.0002 4.76837e-07 11.6718 4.76837e-07 12.5002C4.76837e-07 13.3287 0.671573 14.0002 1.5 14.0002H6.5Z" fill="#FFE1D4"/>
<path d="M11 23.5002C11 24.3287 11.6716 25.0002 12.5 25.0002C13.3284 25.0002 14 24.3287 14 23.5002V18.5002C14 17.6718 13.3284 17.0002 12.5 17.0002C11.6716 17.0002 11 17.6718 11 18.5002V23.5002Z" fill="#FFD9C9"/>
<path d="M11 6.50024C11 7.32867 11.6716 8.00024 12.5 8.00024C13.3284 8.00024 14 7.32867 14 6.50024V1.50024C14 0.671817 13.3284 0.000244617 12.5 0.000244617C11.6716 0.000244617 11 0.671817 11 1.50024V6.50024Z" fill="#FFEAE0"/>
<path d="M3.662 19.2187C3.07621 19.8044 3.07621 20.7542 3.662 21.34C4.24778 21.9258 5.19753 21.9258 5.78332 21.34L9.31885 17.8044C9.90464 17.2187 9.90464 16.2689 9.31885 15.6831C8.73306 15.0973 7.78332 15.0973 7.19753 15.6831L3.662 19.2187Z" fill="#FFDECF"/>
<path d="M15.6815 7.19717C15.0957 7.78296 15.0957 8.7327 15.6815 9.31849C16.2673 9.90428 17.2171 9.90428 17.8028 9.31849L21.3384 5.78296C21.9242 5.19717 21.9242 4.24742 21.3384 3.66164C20.7526 3.07585 19.8028 3.07585 19.2171 3.66164L15.6815 7.19717Z" fill="#FFF1E9"/>
<path d="M5.78159 3.66224C5.1958 3.07645 4.24606 3.07645 3.66027 3.66224C3.07448 4.24803 3.07448 5.19777 3.66027 5.78356L7.1958 9.31909C7.78159 9.90488 8.73134 9.90488 9.31712 9.31909C9.90291 8.73331 9.90291 7.78356 9.31712 7.19777L5.78159 3.66224Z" fill="#FFE3D7"/>
<path d="M17.8031 15.6837C17.2173 15.0979 16.2675 15.0979 15.6818 15.6837C15.096 16.2695 15.096 17.2193 15.6818 17.805L19.2173 21.3406C19.8031 21.9264 20.7528 21.9264 21.3386 21.3406C21.9244 20.7548 21.9244 19.805 21.3386 19.2193L17.8031 15.6837Z" fill="#FFC8B4"/>
</g>
<defs>
<clipPath id="clip0_3403_448">
<rect width="25" height="25" fill="white"/>
</clipPath>
</defs>
</svg>
