<svg width="16" height="16" viewBox="0 0 16 16" fill="none" xmlns="http://www.w3.org/2000/svg">
<path fill-rule="evenodd" clip-rule="evenodd" d="M7.25 11.3051L7.25 14.4572C4.2595 14.1136 1.88638 11.7405 1.5428 8.75H4.69444C5.10866 8.75 5.44444 8.41421 5.44444 8C5.44444 7.58579 5.10866 7.25 4.69444 7.25H1.5428C1.88638 4.2595 4.2595 1.88638 7.25 1.5428L7.25 4.69482C7.25 5.10904 7.58579 5.44482 8 5.44482C8.41421 5.44482 8.75 5.10904 8.75 4.69482V1.5428C11.7405 1.88638 14.1136 4.2595 14.4572 7.25H11.3056C10.8913 7.25 10.5556 7.58579 10.5556 8C10.5556 8.41421 10.8913 8.75 11.3056 8.75H14.4572C14.1136 11.7405 11.7405 14.1136 8.75 14.4572V11.3051C8.75 10.8909 8.41421 10.5551 8 10.5551C7.58579 10.5551 7.25 10.8909 7.25 11.3051ZM8 16C12.4183 16 16 12.4183 16 8C16 3.58172 12.4183 0 8 0C3.58172 0 0 3.58172 0 8C0 12.4183 3.58172 16 8 16Z" fill="#FF8B64"/>
</svg>
