<svg width="18" height="14" viewBox="0 0 18 14" fill="none" xmlns="http://www.w3.org/2000/svg">
<path d="M2 0.75H16C16.6904 0.75 17.25 1.30964 17.25 2V8.94776C17.25 9.34107 17.0649 9.71144 16.7503 9.94752L12.6833 12.9998C12.4669 13.1622 12.2036 13.25 11.933 13.25H2C1.30964 13.25 0.75 12.6904 0.75 12V2C0.75 1.30964 1.30964 0.75 2 0.75Z" stroke="#FFC0AA" stroke-width="1.5"/>
<path d="M11.9531 13.526V9.31543C11.9531 8.76315 12.4008 8.31543 12.9531 8.31543H17.4961" stroke="#FFC0AA" stroke-width="1.5"/>
<path d="M2.5 3L8.56361 5.79859C8.83944 5.92589 9.15817 5.92091 9.42988 5.78506L15 3" stroke="#FFC0AA" stroke-width="1.5" stroke-linecap="round"/>
</svg>
